<svg width="260" height="260" viewBox="0 0 420 420" fill="none" xmlns="http://www.w3.org/2000/svg">
  <defs>
    <linearGradient id="qGradL" x1="40" y1="0" x2="400" y2="420" gradientUnits="userSpaceOnUse">
      <stop offset="0%" stop-color="#4AF0FF"/>
      <stop offset="12%" stop-color="#47D4FF"/>
      <stop offset="24%" stop-color="#FFB347"/>
      <stop offset="38%" stop-color="#FF8A50"/>
      <stop offset="50%" stop-color="#FF5252"/>
      <stop offset="62%" stop-color="#F04E6B"/>
      <stop offset="74%" stop-color="#D63384"/>
      <stop offset="86%" stop-color="#9B30D1"/>
      <stop offset="100%" stop-color="#6A1FE8"/>
    </linearGradient>
    <filter id="liftL">
      <feDropShadow dx="0" dy="4" stdDeviation="8" flood-color="#000000" flood-opacity="0.12"/>
      <feDropShadow dx="0" dy="1" stdDeviation="2" flood-color="#000000" flood-opacity="0.08"/>
    </filter>
    <radialGradient id="shineL" cx="45%" cy="30%" r="50%" fx="40%" fy="25%">
      <stop offset="0%" stop-color="#fff" stop-opacity="0.5"/>
      <stop offset="50%" stop-color="#fff" stop-opacity="0.2"/>
      <stop offset="100%" stop-color="#fff" stop-opacity="0"/>
    </radialGradient>
    <clipPath id="tailClipL">
      <line x1="236" y1="248" x2="314" y2="374" stroke="black" stroke-width="52" stroke-linecap="round"/>
    </clipPath>
  </defs>
  <path d="M210 30A156 156 0 1 0 210 342A156 156 0 1 0 210 30ZM210 84A102 102 0 1 1 210 288A102 102 0 1 1 210 84Z" fill="url(#qGradL)" fill-rule="evenodd"/>
  <line x1="236" y1="248" x2="314" y2="374" stroke="rgba(0,0,0,0.1)" stroke-width="62" stroke-linecap="round" filter="url(#liftL)"/>
  <line x1="236" y1="248" x2="314" y2="374" stroke="rgba(0,0,0,0.08)" stroke-width="62" stroke-linecap="round"/>
  <line x1="236" y1="248" x2="314" y2="374" stroke="url(#qGradL)" stroke-width="54" stroke-linecap="round"/>
  <ellipse cx="255" cy="278" rx="30" ry="48" fill="url(#shineL)" clip-path="url(#tailClipL)" transform="rotate(-38,255,278)"/>
</svg>
